<?xml version="1.0" encoding="utf-8"?>
<!-- Generator: Adobe Illustrator 22.1.0, SVG Export Plug-In . SVG Version: 6.00 Build 0)  -->
<svg version="1.1" id="Layer_1" xmlns="http://www.w3.org/2000/svg" xmlns:xlink="http://www.w3.org/1999/xlink" x="0px" y="0px"
	 viewBox="0 0 63 70" style="enable-background:new 0 0 63 70;" xml:space="preserve">
<style type="text/css">
	.st0{fill:none;}
	.st1{fill:url(#SVGID_1_);}
	.st2{fill:url(#SVGID_2_);}
</style>
<rect class="st0" width="63" height="70"/>
<g>
	
		<linearGradient id="SVGID_1_" gradientUnits="userSpaceOnUse" x1="16.6101" y1="60.6709" x2="58.218" y2="-23.6548" gradientTransform="matrix(-1 0 0 1 62.9943 35.0679)">
		<stop  offset="0" style="stop-color:#ED3A8D"/>
		<stop  offset="1" style="stop-color:#4B3D9B"/>
	</linearGradient>
	<path class="st1" d="M63,70c0-0.5,0-0.9,0-1.4c0-2.2-0.2-4.3-0.6-6.3c-0.4-2-1-4-1.8-5.9c0,0,0-0.1,0-0.1c-0.8-1.9-1.8-3.7-2.9-5.4
		c-1.1-1.7-2.4-3.2-3.8-4.7c-1.4-1.4-3-2.7-4.6-3.8c-1.7-1.1-3.5-2.1-5.4-2.9c-1.9-0.8-3.9-1.4-6-1.9c-2-0.4-4.1-0.6-6.3-0.6
		s-4.3,0.2-6.3,0.6c-2,0.4-4,1-5.9,1.8c0,0-0.1,0-0.1,0c-1.9,0.8-3.7,1.8-5.4,2.9c-1.7,1.1-3.2,2.4-4.6,3.8c-1.4,1.4-2.7,3-3.8,4.7
		c-1.1,1.7-2.1,3.5-2.9,5.4c-0.8,1.9-1.4,3.9-1.8,6c-0.4,2-0.6,4.2-0.6,6.3c0,0.5,0,0.9,0,1.4C20.9,70,42,70,63,70z M60.2,67.2h-8.7
		c-0.3-4.3-1.8-8.6-4.3-13h9.2c0.6,1,1.1,2.1,1.6,3.2c0,0,0,0,0,0.1c0.7,1.7,1.3,3.5,1.6,5.4C60,64.3,60.1,65.7,60.2,67.2z
		 M54.6,51.4h-9.2C42.8,47.7,39.3,43.9,35,40c0.8,0.1,1.5,0.2,2.3,0.4c1.9,0.4,3.7,0.9,5.4,1.7c1.8,0.8,3.4,1.6,4.9,2.7
		c1.5,1,2.9,2.2,4.2,3.5C52.9,49.2,53.8,50.3,54.6,51.4L54.6,51.4L54.6,51.4z M28,40c-4.3,3.8-7.8,7.6-10.4,11.4H8.4
		c0.8-1.1,1.8-2.2,2.8-3.2c1.3-1.3,2.7-2.5,4.2-3.5c1.5-1,3.2-1.9,4.9-2.7c0,0,0,0,0.1,0c1.7-0.7,3.5-1.3,5.3-1.6
		C26.5,40.3,27.2,40.1,28,40L28,40L28,40z M6.6,54.2h9.2c-2.6,4.4-4,8.7-4.3,13H2.8c0.1-1.5,0.2-3,0.5-4.4c0.4-1.9,0.9-3.7,1.7-5.4
		C5.5,56.3,6,55.2,6.6,54.2z M30.1,41.8v9.6H21C23.4,48.3,26.4,45.1,30.1,41.8z M30.1,54.2v13H14.3c0.4-4.3,1.9-8.6,4.8-13H30.1
		L30.1,54.2z M32.9,67.2v-13h11.1c2.8,4.4,4.4,8.7,4.8,13H32.9z M32.9,51.4v-9.6c3.7,3.2,6.7,6.4,9.1,9.6H32.9z"/>
	
		<linearGradient id="SVGID_2_" gradientUnits="userSpaceOnUse" x1="6.9017" y1="92.5601" x2="48.3765" y2="9.2492" gradientTransform="matrix(1 0 0 -1 0 72)">
		<stop  offset="0" style="stop-color:#ED3A8D"/>
		<stop  offset="1" style="stop-color:#4B3D9B"/>
	</linearGradient>
	<path class="st2" d="M47.5,21.7l1,0l0.8,0c-1-2.9-0.6-5.7,1.7-8c0.4,1.3,1.3,2.3,2.8,3.1c0.7,0.5,1.4,1.2,2.1,1.9
		c0.1-0.5-0.3-1.1-0.9-1.7c0.5,0.3,1,0.6,1.3,1.3c0.4,0.8,0.4,1.4,0.3,2.3c-0.1,0.4-0.2,0.8-0.3,1.1h1.4c1.4-3.1,0.5-7.7-2.4-9.6
		c-0.9-0.6-1.5-0.6-2.6-0.6c-1.2,0-1.8,0-2.9,0.7c-1.5,1-2.5,2.8-2.9,5.2C46.7,18.7,46.6,20.8,47.5,21.7z M0.5,32.6
		c0.1-3.3,4.1-3.5,7.2-5.4l2.1,5.4H0.5z M14,30.8h0.4c0.4,0,0.7-0.3,0.7-0.7v-1.1c0-0.4-0.3-0.7-0.7-0.7H12c-0.4,0-0.7,0.3-0.7,0.7
		v1.1c0,0.4,0.3,0.7,0.7,0.7h0.4l-0.4,1.8h2.3L14,30.8z M9.8,24.9C9.9,24.3,8,22.2,7.7,21c-0.7-1.2-1-2.4-0.2-3.6
		C7.8,17,7.7,15.6,7.7,15c0-6.7,11.7-6.7,11.7,0c0,0.8-0.2,1.9,0.3,2.6c0.8,1.1,0.4,2.4-0.3,3.5c-0.4,1.2-2.4,3.2-2.2,3.9
		C17.2,28.3,9.8,28.2,9.8,24.9z M29,23.6l2.9,8.6l1.5-5.1l-0.7-0.8c-0.3-0.5-0.4-0.9-0.2-1.2c0.4-0.8,1.2-0.6,1.9-0.6
		c0.8,0,1.8-0.1,2,0.8c0.1,0.3,0,0.7-0.3,1l-0.7,0.8l1.5,5.1l2.6-8.6c3.4,3.1,10.4,1.3,11.2,9.1H16.9C17.7,24.5,25.5,26.7,29,23.6z
		 M26.6,12.2c0,0.5,0.3,1.1,0.8,1.9l0,0l1.6,2.6c0.7,1,1.3,2.1,2.2,2.9c0.8,0.7,1.8,1.2,3.1,1.2c1.4,0,2.4-0.5,3.3-1.3
		c0.9-0.8,1.6-1.9,2.2-3.1l1.8-3c0.4-0.9,0.5-1.4,0.4-1.6c-0.1-0.1-0.3-0.2-0.7-0.2c-0.3,0.1-0.6,0.1-1,0L41,8.7
		C35.3,9.3,32,3.9,27.9,8l0.5,3.4C27.8,11.5,26.6,11.1,26.6,12.2z M42.1,10.6c0.4,0.1,0.7,0.3,0.8,0.7c0.3,0.6,0.2,1.4-0.4,2.6
		c0,0,0,0,0,0.1L40.7,17c-0.7,1.2-1.5,2.4-2.4,3.3c-1,1-2.3,1.6-4,1.6c-1.6,0-2.8-0.6-3.8-1.5c-1-0.9-1.7-2-2.4-3.1l-1.6-2.6
		c-0.6-0.9-0.9-1.7-0.9-2.4c0-0.3,0-0.6,0.2-0.9c0.1-0.3,0.3-0.5,0.6-0.7c0.1-0.1,0.3-0.2,0.4-0.2c-0.1-1.4-0.1-3.1-0.1-4.6
		c0-0.4,0.1-0.7,0.2-1.1c0.4-1.5,1.5-2.7,2.8-3.5c0.5-0.3,1-0.5,1.5-0.7c3.1-1.1,7.3-0.5,9.5,1.9c0.9,1,1.5,2.3,1.6,4L42.1,10.6z
		 M51.2,27.3l0.7-2.6l-0.4-0.4c-0.2-0.2-0.2-0.4-0.1-0.6c0.2-0.4,0.6-0.3,1-0.3c0.4,0,0.9-0.1,1,0.4c0,0.2,0,0.3-0.1,0.5L53,24.8
		l0.7,2.6l-1.3,1L51.2,27.3z M57.8,26.4c-0.6-1.1-1.3-2.1-2.1-3c1.5,0.6,3.1,1.2,4.3,1.9c0.7,0.5,1.1,0.8,1.4,1.4
		c0.6,1.2,0.7,2.3,0.8,3.6l0.2,2.3h-9c-0.2-1-0.4-1.9-0.9-3.1C54.1,28,55.7,26.8,57.8,26.4z M46.7,24.5c0.9-0.4,1.8-0.7,2.5-1
		c-0.4,0.5-0.9,1-1.2,1.5C47.6,24.8,47.1,24.6,46.7,24.5z"/>
</g>
</svg>
