<svg width="71" height="68" viewBox="0 0 71 68" fill="none" xmlns="http://www.w3.org/2000/svg">
<g clip-path="url(#clip0)">
<path fill-rule="evenodd" clip-rule="evenodd" d="M2.606 0H69.6585C70.3897 0 71 0.60319 71 1.35026V5.92122C71 6.65723 70.4007 7.27148 69.6585 7.27148H68.6854V36.8942C68.6854 37.431 68.4655 37.9235 68.1136 38.2777C67.7617 38.6318 67.2669 38.8532 66.7336 38.8532H52.9339V41.4652H50.0914V45.5215C49.2558 44.1159 48.2112 43.0257 47.0676 42.2676C45.7041 41.3656 44.1977 40.9173 42.6748 40.9229C41.1409 40.9284 39.6399 41.3988 38.2819 42.3174C36.8195 43.3135 35.544 44.8519 34.6643 46.916H29.6722C29.5787 46.8828 29.4798 46.8441 29.3808 46.8109C28.5396 46.512 27.66 46.3682 26.8133 46.3682C25.9721 46.3682 25.0979 46.512 24.2458 46.8109C24.1468 46.8441 24.0533 46.8828 23.9544 46.916H22.1346V41.4596H19.2922V38.8477H5.53089C4.9921 38.8477 4.50278 38.6263 4.15092 38.2721C4.11793 38.2389 4.08494 38.2002 4.05745 38.167C3.75507 37.8239 3.57913 37.3701 3.57913 36.8887V7.27148H2.606C1.87478 7.27148 1.26451 6.66829 1.26451 5.92122V1.35026C1.26451 0.60319 1.86379 0 2.606 0ZM38.216 59.6051C32.4047 59.6051 36.2257 60.0645 37.0229 53.7005C38.205 44.1878 47.194 44.1878 48.519 53.7005C49.3657 59.821 53.0163 59.6051 47.326 59.6051H45.0554C45.0444 61.1657 44.808 61.9626 46.4133 62.8314C47.2325 63.2796 48.761 63.6117 50.0585 64.1263C52.0432 62.4163 55.5784 63.5452 55.9412 60.4076C56.0017 59.9316 54.8801 58.111 54.6217 57.2367C54.0719 56.3512 53.874 54.9567 54.4788 54.027C54.7152 53.6562 54.6162 52.306 54.6162 51.7969C54.6162 46.7334 63.4404 46.7279 63.4404 51.7969C63.4404 52.4388 63.2974 53.6175 63.6383 54.1156C64.2156 54.9567 63.9187 56.4508 63.4294 57.2311C63.116 58.1497 61.9284 59.8818 62.0329 60.402C62.8851 64.7848 68.8283 60.0921 68.8283 67.9834C45.891 67.9834 22.9483 67.9834 0.00549316 67.9834C0.00549316 59.9648 7.52663 64.403 8.10391 59.4889C8.16989 58.9522 6.91087 56.9102 6.62498 55.9362C6.01471 54.9456 5.78929 53.3796 6.46554 52.3392C6.72944 51.9242 6.61948 50.4134 6.61948 49.8379C6.61948 44.1546 16.5047 44.1546 16.5047 49.8379C16.5047 50.5573 16.3453 51.8799 16.7301 52.4443C17.3789 53.3851 17.0435 55.0618 16.4992 55.9417C16.1474 56.971 14.8169 58.9134 14.9268 59.4945C15.3447 61.6195 20.6007 63.0583 22.4315 63.8385C23.4651 63.3018 24.2953 62.6709 24.3832 61.9349C24.4272 61.5531 23.5365 60.1032 23.3331 59.4059C22.8933 58.7031 22.7393 57.5853 23.2177 56.8438C23.4101 56.5449 23.3276 55.4714 23.3276 55.0619C23.3276 51.0221 30.3704 51.0166 30.3704 55.0619C30.3704 55.571 30.255 56.5173 30.5244 56.9157C30.9862 57.5908 30.7498 58.7806 30.3595 59.4059C30.112 60.1364 29.1609 61.5254 29.2434 61.9349C29.7657 64.5856 32.6136 63.0804 33.9606 64.9342C35.2306 63.9271 37.7596 63.6504 39.3045 62.7207C40.712 61.874 40.4756 61.0163 40.4646 59.6051H38.216ZM17.7033 29.335C38.8867 29.335 33.2129 29.3239 54.5612 29.3239C55.0561 29.3239 55.4629 29.7334 55.4629 30.2314V35.7764C55.4629 36.0475 55.3419 36.3021 55.144 36.4681H66.3268V7.4209H5.93774V36.4792H17.1205C16.9226 36.3132 16.8016 36.0641 16.8016 35.7874V30.2425C16.8016 29.7445 17.2085 29.335 17.7033 29.335Z" fill="url(#paint0_linear)"/>
</g>
<defs>
<linearGradient id="paint0_linear" x1="-31.7896" y1="-7.47818" x2="75.8884" y2="111.66" gradientUnits="userSpaceOnUse">
<stop stop-color="#ED3A8D"/>
<stop offset="1" stop-color="#4B3D9B"/>
</linearGradient>
<clipPath id="clip0">
<rect width="71" height="68" fill="white"/>
</clipPath>
</defs>
</svg>
