<svg width="63" height="70" viewBox="0 0 63 70" fill="none" xmlns="http://www.w3.org/2000/svg">
<g clip-path="url(#clip0)">
<path d="M0.028445 37.0679C0.011378 37.5293 0 37.9964 0 38.4635C0 40.6396 0.210493 42.7417 0.62579 44.8039C1.01833 46.8262 1.62705 48.7744 2.44058 50.6885C2.44058 50.7113 2.46334 50.7454 2.47472 50.7682C3.28255 52.6766 4.26675 54.4596 5.38748 56.1401C6.50253 57.8263 7.78824 59.3758 9.2048 60.7943C10.6214 62.2298 12.1745 63.5002 13.8527 64.611C15.5367 65.7446 17.3287 66.713 19.2174 67.5277C21.146 68.3594 23.1315 68.9632 25.1681 69.3791C27.1991 69.7892 29.3154 70 31.4886 70C33.6618 70 35.7611 69.7892 37.8205 69.3734C39.8401 68.9803 41.7857 68.3708 43.6972 67.5561C43.72 67.5561 43.7541 67.5334 43.7769 67.522C45.6656 66.713 47.4633 65.7275 49.1416 64.6053C50.8255 63.4888 52.3729 62.2013 53.7895 60.7886C55.2231 59.3701 56.4918 57.8149 57.6068 56.1344C58.7389 54.4482 59.7004 52.6538 60.5196 50.7625C61.3502 48.8314 61.9532 46.8433 62.3685 44.8039C62.7838 42.7588 62.9943 40.6396 62.9943 38.4635C62.9943 37.9964 62.9829 37.535 62.9659 37.0736C42.0474 37.0679 20.9981 37.0679 0.028445 37.0679ZM2.7933 39.8421H11.5032C11.8274 44.1545 13.2611 48.4839 15.8097 52.8589H6.59355C6.00759 51.8392 5.47851 50.7796 5.00632 49.6631C4.98357 49.6403 4.98356 49.6289 4.97219 49.6061C4.25537 47.8857 3.68647 46.1027 3.32807 44.2513C3.03793 42.8158 2.85588 41.3574 2.7933 39.8421ZM8.38559 55.6217H17.5847C20.2073 59.4043 23.6719 63.2096 27.9785 67.0264C27.2048 66.9352 26.4482 66.8156 25.7143 66.6675C23.8426 66.2858 22.0506 65.7389 20.3097 64.9813C18.5518 64.2293 16.9134 63.335 15.3774 62.3096C13.847 61.2899 12.4475 60.1335 11.1448 58.8289C10.1435 57.8263 9.21618 56.7668 8.38559 55.6331V55.6217V55.6217ZM35.0101 67.0264C39.3394 63.2039 42.7927 59.4043 45.4039 55.6217H54.603C53.7724 56.7554 52.8451 57.8206 51.8439 58.8175C50.5411 60.1221 49.1416 61.2785 47.6113 62.2982C46.098 63.3179 44.4539 64.2065 42.6789 64.9699C42.6561 64.9927 42.6448 64.9927 42.622 65.0041C40.9039 65.7218 39.1233 66.2915 37.2743 66.6504C36.5177 66.8042 35.7611 66.9181 35.0101 67.0093V67.0264V67.0264ZM56.4008 52.8589H47.1789C49.7332 48.4896 51.1669 44.1602 51.4855 39.8421H60.1953C60.1214 41.3574 59.9507 42.8158 59.6662 44.2513C59.2851 46.1255 58.7389 47.9199 57.9823 49.6631C57.5101 50.7739 56.981 51.8392 56.4008 52.8589ZM32.8767 65.2319V55.6217H42.019C39.6182 58.8005 36.5746 61.9963 32.8767 65.2319ZM32.8767 52.8589V39.8421H48.7263C48.3679 44.1203 46.7807 48.4497 43.9475 52.8589H32.8767V52.8589ZM30.1176 39.8421V52.8589H19.0468C16.2137 48.4497 14.6264 44.1146 14.268 39.8421H30.1176ZM30.1176 55.6217V65.2319C26.414 61.9963 23.3704 58.8005 20.9697 55.6217H30.1176Z" fill="url(#paint0_linear)"/>
<path fill-rule="evenodd" clip-rule="evenodd" d="M47.4576 21.7268L48.4418 21.704L49.2611 21.6812C48.2996 18.7361 48.6239 16.0302 50.9222 13.7288C51.3091 14.9934 52.1852 16.0359 53.6757 16.8049C54.3868 17.3347 55.0752 17.9727 55.7408 18.7076C55.8603 18.2177 55.4109 17.6309 54.8647 17.0214C55.371 17.272 55.8319 17.6195 56.1675 18.2917C56.5544 19.0722 56.5487 19.733 56.4178 20.5761C56.3552 20.9692 56.2642 21.3337 56.1277 21.6755H57.4874C58.921 18.5937 58.0107 14.025 55.0752 12.0938C54.1707 11.5014 53.5278 11.5242 52.4697 11.5242C51.2579 11.5242 50.6378 11.5583 49.6024 12.2476C48.0777 13.2616 47.1391 15.0105 46.7408 17.4429C46.6669 18.6563 46.61 20.7527 47.4576 21.7268ZM0.546143 32.6472C0.665612 29.3204 4.64791 29.1894 7.7598 27.2468L9.84197 32.6472H0.546143ZM14.0461 30.8186H14.4557C14.8255 30.8186 15.1271 30.5167 15.1271 30.1464V29.0583C15.1271 28.6881 14.8255 28.3861 14.4557 28.3861H12.0265C11.6568 28.3861 11.3552 28.6881 11.3552 29.0583V30.1464C11.3552 30.5167 11.6568 30.8186 12.0265 30.8186H12.4418L12.0834 32.6472H14.3932L14.0461 30.8186ZM9.79646 24.8998C9.8761 24.2675 8.01011 22.1882 7.66877 21.0375C6.94058 19.8754 6.67889 18.6734 7.47535 17.4429C7.79393 16.953 7.65739 15.6371 7.65739 14.9649C7.65739 8.29418 19.3369 8.28849 19.3369 14.9649C19.3369 15.808 19.1435 16.9075 19.5986 17.574C20.3609 18.6848 19.9684 20.0121 19.3198 21.0432C18.9102 22.2566 16.9589 24.2162 17.0898 24.9055C17.2092 28.3235 9.7737 28.2095 9.79646 24.8998ZM29.0082 23.5896L31.9324 32.1858L33.4058 27.0816L32.6833 26.2955C32.3533 25.817 32.2851 25.4068 32.4671 25.0479C32.8597 24.2789 33.6618 24.4156 34.4128 24.4156C35.2035 24.4156 36.182 24.2675 36.4267 25.2587C36.5063 25.5948 36.4039 25.9366 36.1764 26.2955L35.4538 27.0816L36.9273 32.1858L39.5727 23.5896C43.0145 26.6942 49.9494 24.877 50.7857 32.6415H16.8679C17.7497 24.4669 25.5379 26.7227 29.0082 23.5896ZM26.6245 12.2078C26.6416 12.692 26.8919 13.3243 27.3868 14.0592L27.3982 14.0706L29.031 16.6682C29.6852 17.7107 30.3622 18.7646 31.2155 19.5393C32.0177 20.2799 33.0076 20.7812 34.299 20.7812C35.7042 20.7869 36.7225 20.2628 37.5588 19.4823C38.4292 18.6677 39.1233 17.5398 39.8059 16.4176L41.6435 13.3927C42.019 12.5382 42.1327 12.0198 42.0076 11.7691C41.9393 11.6267 41.6833 11.5754 41.2737 11.5925C40.9892 11.6723 40.6593 11.6723 40.2667 11.564L41.012 8.71004C35.2547 9.30248 32.0177 3.90779 27.9159 8.00935L28.4507 11.3931C27.7851 11.5299 26.579 11.0969 26.6245 12.2078ZM42.1214 10.6184C42.5082 10.738 42.787 10.9545 42.9576 11.302C43.2364 11.8546 43.1226 12.6806 42.6049 13.8598C42.5935 13.8826 42.5822 13.8997 42.5765 13.9224L40.7162 16.9872C39.9937 18.1721 39.2655 19.3627 38.287 20.2799C37.2743 21.2369 36.0114 21.8749 34.2933 21.8635C32.689 21.8578 31.4772 21.2483 30.4874 20.3368C29.5316 19.4652 28.8091 18.343 28.1207 17.2493L26.488 14.6516C25.885 13.7458 25.5721 12.9198 25.5493 12.2362C25.5379 11.9058 25.5948 11.6153 25.72 11.3476C25.8508 11.0741 26.0442 10.8406 26.3116 10.6583C26.4425 10.5785 26.5904 10.4988 26.744 10.4418C26.6416 9.04044 26.6075 7.30297 26.6757 5.85034C26.7099 5.49715 26.7781 5.14396 26.8748 4.78507C27.2901 3.29256 28.3426 2.09627 29.634 1.26456C30.0891 0.97973 30.5898 0.729079 31.1188 0.541091C34.2478 -0.586839 38.4008 0.0340922 40.6252 2.44376C41.5354 3.42358 42.1043 4.7281 42.2238 6.45418L42.1214 10.6184ZM51.201 27.3266L51.9349 24.7688L51.5765 24.3757C51.4115 24.1422 51.3831 23.9314 51.4684 23.7548C51.6618 23.3674 52.0657 23.4415 52.4412 23.4415C52.8337 23.4415 53.323 23.3617 53.4482 23.863C53.488 24.0282 53.4368 24.1991 53.3287 24.3814L52.9646 24.7802L53.6985 27.338L52.4469 28.3292L51.201 27.3266ZM57.7775 26.4379C57.22 25.3214 56.5145 24.37 55.6896 23.4814C57.237 24.0795 58.8243 24.672 59.9905 25.4125C60.7358 25.8796 61.1226 26.2328 61.4184 26.7968C62.0613 28.0045 62.1296 29.0811 62.2206 30.3914L62.4482 32.6472H53.4026C53.158 31.6047 53.0215 30.7331 52.5095 29.5767C54.074 28.033 55.7408 26.7797 57.7775 26.4379ZM46.6782 24.4897C47.543 24.108 48.4362 23.7833 49.2155 23.4814C48.7718 23.9656 48.3622 24.4612 47.9924 24.991C47.5771 24.8201 47.1391 24.6492 46.6782 24.4897Z" fill="url(#paint1_linear)"/>
</g>
<defs>
<linearGradient id="paint0_linear" x1="-28.2122" y1="33.4453" x2="13.3957" y2="117.771" gradientUnits="userSpaceOnUse">
<stop stop-color="#ED3A8D"/>
<stop offset="1" stop-color="#4B3D9B"/>
</linearGradient>
<linearGradient id="paint1_linear" x1="-27.1768" y1="-3.59472" x2="14.298" y2="79.7162" gradientUnits="userSpaceOnUse">
<stop stop-color="#ED3A8D"/>
<stop offset="1" stop-color="#4B3D9B"/>
</linearGradient>
<clipPath id="clip0">
<rect width="63" height="70" fill="white"/>
</clipPath>
</defs>
</svg>
