<svg width="61" height="79" viewBox="0 0 61 79" fill="none" xmlns="http://www.w3.org/2000/svg">
<g clip-path="url(#clip0)">
<path d="M30.5 10.6465C35.9429 10.6465 40.8644 12.8195 44.4365 16.3362C48.0021 19.8529 50.2054 24.7132 50.2054 30.0815C50.2054 35.2118 48.1912 39.8793 44.8993 43.351C44.5604 41.5316 44.0519 39.8922 43.4001 38.4392C45.0036 36.0412 45.9358 33.1674 45.9358 30.0815C45.9358 25.8769 44.2084 22.0709 41.4185 19.3193C38.6286 16.5676 34.7696 14.8639 30.5065 14.8639C26.2434 14.8639 22.3845 16.5676 19.5946 19.3193C16.8047 22.0709 15.0773 25.8769 15.0773 30.0815C15.0773 33.2896 16.0811 36.2662 17.802 38.7221C17.1436 40.1558 16.6221 41.7566 16.2701 43.5182C12.887 40.0272 10.8077 35.2954 10.8077 30.0815C10.8077 24.7132 13.0109 19.8593 16.5765 16.3362C20.1291 12.8195 25.0571 10.6465 30.5 10.6465ZM20.0704 43.0295C21.7326 36.9027 41.0013 38.0406 41.0013 42.8045C40.9882 92.0895 20.0574 89.9615 20.0704 43.0295ZM30.5978 21.0937C35.1998 21.0937 38.9284 24.7711 38.9284 29.31C38.9284 33.8489 35.1998 37.5263 30.5978 37.5263C25.9957 37.5263 22.2672 33.8489 22.2672 29.31C22.2672 24.7711 25.9957 21.0937 30.5978 21.0937ZM30.5 0C38.9219 0 46.5485 3.36882 52.0632 8.80778C57.5843 14.2532 60.9935 21.7687 60.9935 30.075C60.9935 38.3813 57.5778 45.9033 52.0632 51.3423C49.899 53.4767 47.409 55.2897 44.6777 56.7105C44.8733 55.2254 45.0493 53.6889 45.1927 52.0816C45.2122 51.8759 45.2253 51.6702 45.2383 51.4644C46.6007 50.5451 47.8718 49.51 49.0386 48.3592C53.784 43.6789 56.7174 37.2113 56.7174 30.0686C56.7174 22.9259 53.784 16.4583 49.0386 11.778C44.2996 7.11051 37.742 4.21102 30.5 4.21102C23.258 4.21102 16.7004 7.10409 11.9549 11.7844C7.20945 16.4712 4.26961 22.9388 4.26961 30.0815C4.26961 37.2241 7.20293 43.6917 11.9484 48.3721C13.1413 49.5486 14.445 50.6094 15.8399 51.5416C15.8595 51.8373 15.879 52.1266 15.9116 52.4288C16.0616 53.9332 16.2376 55.3797 16.4331 56.7813C13.6497 55.354 11.1205 53.5153 8.92381 51.3487C3.41569 45.9098 0 38.3878 0 30.0815C0 21.7751 3.41569 14.2532 8.93033 8.80778C14.4515 3.36882 22.0781 0 30.5 0Z" fill="url(#paint0_linear)"/>
</g>
<defs>
<linearGradient id="paint0_linear" x1="-27.3161" y1="-8.69021" x2="95.9582" y2="92.1466" gradientUnits="userSpaceOnUse">
<stop stop-color="#ED3A8D"/>
<stop offset="1" stop-color="#4B3D9B"/>
</linearGradient>
<clipPath id="clip0">
<rect width="61" height="79" fill="white"/>
</clipPath>
</defs>
</svg>
