<?xml version="1.0" encoding="utf-8"?>
<!-- Generator: Adobe Illustrator 22.1.0, SVG Export Plug-In . SVG Version: 6.00 Build 0)  -->
<svg version="1.1" id="Layer_1" xmlns="http://www.w3.org/2000/svg" xmlns:xlink="http://www.w3.org/1999/xlink" x="0px" y="0px"
	 viewBox="0 0 65 64" style="enable-background:new 0 0 65 64;" xml:space="preserve">
<style type="text/css">
	.st0{fill:none;}
	.st1{fill:url(#SVGID_1_);}
</style>
<g>
	<rect class="st0" width="65" height="64"/>
	<g>
		
			<linearGradient id="SVGID_1_" gradientUnits="userSpaceOnUse" x1="-14.1151" y1="81.7885" x2="73.0924" y2="-11.9441" gradientTransform="matrix(1 0 0 -1 0 66)">
			<stop  offset="0" style="stop-color:#ED3A8D"/>
			<stop  offset="1" style="stop-color:#4B3D9B"/>
		</linearGradient>
		<path class="st1" d="M22.6,33.2c-0.4-0.1-0.8-0.3-1.1-0.6c-0.3-0.3-0.4-0.7-0.4-1.2c0-0.4,0.2-0.8,0.4-1.2
			c0.3-0.3,0.7-0.5,1.1-0.6h19.9c0.4,0.1,0.8,0.3,1.1,0.6c0.3,0.3,0.4,0.7,0.4,1.2c0,0.4-0.2,0.8-0.4,1.2c-0.3,0.3-0.7,0.5-1.1,0.6
			H22.6z M40.9,59.3c0.5,0,0.9,0.2,1.3,0.5c0.3,0.3,0.5,0.8,0.5,1.3c0,0.5-0.2,0.9-0.5,1.3c-0.3,0.3-0.8,0.5-1.3,0.5H4.2
			c-1.1,0-2.2-0.4-3-1.2C0.4,60.8,0,59.8,0,58.7V4.1C0,3,0.4,2,1.2,1.2C2,0.4,3.1,0,4.2,0h51.3c1.1,0,2.2,0.4,3,1.2
			C59.2,2,59.6,3,59.6,4.1v19.7c0,0.5-0.2,0.9-0.5,1.3c-0.3,0.3-0.8,0.5-1.3,0.5s-0.9-0.2-1.3-0.5c-0.3-0.3-0.5-0.8-0.5-1.3V4.1
			c0-0.2-0.1-0.3-0.2-0.4c-0.1-0.1-0.3-0.2-0.4-0.2H4.2C4,3.6,3.9,3.6,3.8,3.7C3.7,3.8,3.6,4,3.6,4.1v54.5c0,0.2,0.1,0.3,0.2,0.4
			c0.1,0.1,0.3,0.2,0.4,0.2L40.9,59.3L40.9,59.3z M22.6,46.2c-0.4-0.1-0.8-0.3-1.1-0.6c-0.3-0.3-0.4-0.7-0.4-1.2
			c0-0.4,0.1-0.8,0.4-1.2c0.3-0.3,0.7-0.6,1.1-0.6h15.6c0.4,0.1,0.8,0.3,1.1,0.6c0.3,0.3,0.4,0.7,0.4,1.2c0,0.4-0.2,0.8-0.4,1.2
			c-0.3,0.3-0.7,0.6-1.1,0.6H22.6z M22.6,20.2c-0.4,0-0.8-0.3-1.1-0.6c-0.3-0.3-0.4-0.8-0.4-1.2c0-0.4,0.1-0.9,0.4-1.2
			c0.3-0.3,0.7-0.5,1.1-0.6h19.9c0.4,0,0.8,0.3,1.1,0.6c0.3,0.3,0.4,0.8,0.4,1.2c0,0.4-0.1,0.9-0.4,1.2c-0.3,0.3-0.7,0.5-1.1,0.6
			H22.6z M13.9,42c0.4,0,0.8,0.1,1.2,0.4c0.3,0.2,0.6,0.6,0.8,0.9c0.2,0.4,0.2,0.8,0.1,1.2c-0.1,0.4-0.3,0.8-0.6,1.1
			c-0.3,0.3-0.7,0.5-1.1,0.6c-0.4,0.1-0.8,0-1.2-0.1c-0.4-0.2-0.7-0.4-0.9-0.8c-0.2-0.3-0.4-0.8-0.4-1.2c0-0.6,0.2-1.1,0.6-1.5
			C12.8,42.2,13.4,42,13.9,42z M13.9,29.1c0.4,0,0.8,0.1,1.2,0.4c0.3,0.2,0.6,0.6,0.8,0.9c0.2,0.4,0.2,0.8,0.1,1.2
			c-0.1,0.4-0.3,0.8-0.6,1.1c-0.3,0.3-0.7,0.5-1.1,0.6c-0.4,0.1-0.8,0-1.2-0.1c-0.4-0.2-0.7-0.4-0.9-0.8c-0.2-0.3-0.4-0.8-0.4-1.2
			c0-0.6,0.2-1.1,0.6-1.5C12.8,29.4,13.4,29.1,13.9,29.1z M13.9,16.3c0.4,0,0.8,0.1,1.2,0.4c0.3,0.2,0.6,0.6,0.8,0.9
			c0.2,0.4,0.2,0.8,0.1,1.2c-0.1,0.4-0.3,0.8-0.6,1.1c-0.3,0.3-0.7,0.5-1.1,0.6c-0.4,0.1-0.8,0-1.2-0.1c-0.4-0.2-0.7-0.4-0.9-0.8
			c-0.2-0.3-0.4-0.8-0.4-1.2c0-0.6,0.2-1.1,0.6-1.5C12.8,16.5,13.4,16.3,13.9,16.3z"/>
	</g>
</g>
</svg>
