<svg width="65" height="64" viewBox="0 0 65 64" fill="none" xmlns="http://www.w3.org/2000/svg">
<g clip-path="url(#clip0)">
<path fill-rule="evenodd" clip-rule="evenodd" d="M22.5553 33.1865C22.1339 33.1143 21.7517 32.8967 21.4762 32.572C21.2007 32.2473 21.0496 31.8365 21.0496 31.412C21.0496 30.9875 21.2007 30.5766 21.4762 30.252C21.7517 29.9273 22.1339 29.7096 22.5553 29.6374H42.4235C42.8449 29.7096 43.2271 29.9273 43.5026 30.252C43.7781 30.5766 43.9292 30.9875 43.9292 31.412C43.9292 31.8365 43.7781 32.2473 43.5026 32.572C43.2271 32.8967 42.8449 33.1143 42.4235 33.1865H22.5553ZM55.3198 33.134V35.4966C55.3199 35.5949 55.2849 35.69 55.2209 35.765C55.157 35.8399 55.0683 35.89 54.9707 35.9062C54.7803 35.9062 54.5898 35.9639 54.3994 36.0059C54.0417 36.0741 53.6884 36.1635 53.3415 36.2737C52.6902 36.475 52.0679 36.7591 51.4901 37.1189C51.2178 37.2877 50.958 37.4754 50.7125 37.6807C50.4726 37.879 50.2481 38.0949 50.0407 38.3265C49.8278 38.5598 49.6332 38.8091 49.4588 39.072C48.74 40.1628 48.3711 41.4441 48.4009 42.7472C48.4006 43.1207 48.42 43.494 48.4591 43.8655C48.5001 44.2049 48.5619 44.5415 48.6442 44.8735C48.7241 45.1764 48.8267 45.473 48.951 45.7608C49.067 46.0298 49.2068 46.2881 49.3689 46.5326L49.4006 46.5798C49.7349 47.0693 50.1294 47.5155 50.575 47.9081C50.8092 48.1221 51.0546 48.3236 51.3102 48.5119C51.5742 48.7008 51.8479 48.876 52.1301 49.0369C52.7067 49.3467 53.3679 49.7247 53.9604 49.9872L54.9707 50.4597L56.473 51.116C56.7269 51.242 56.9385 51.347 57.1871 51.4835L57.4992 51.6883C57.5891 51.7513 57.6685 51.8143 57.7372 51.872C57.8095 51.935 57.8767 52.0034 57.9382 52.0768L58.0863 52.2658C58.1457 52.352 58.197 52.4434 58.2397 52.5388C58.2743 52.6097 58.3026 52.6835 58.3244 52.7593C58.3558 52.8502 58.3806 52.9432 58.3984 53.0376C58.421 53.1519 58.4351 53.2677 58.4408 53.3841C58.4408 53.5101 58.4408 53.6361 58.4408 53.7621V54.0141C58.4197 54.1701 58.3879 54.3245 58.3455 54.4761C58.2998 54.6167 58.2395 54.7521 58.1657 54.8804C58.0808 55.0162 57.9755 55.1383 57.8536 55.2427L57.6737 55.3739C57.5221 55.461 57.358 55.5247 57.1871 55.5629C56.9955 55.6152 56.7985 55.6452 56.5999 55.6522C56.4042 55.6522 56.2667 55.6522 56.071 55.6154C55.7358 55.5614 55.4132 55.4475 55.1188 55.2794C55.0508 55.2361 54.9854 55.1888 54.9231 55.1376L54.7274 54.9644C54.664 54.9025 54.6057 54.8358 54.5528 54.7649C54.4969 54.6929 54.4457 54.6175 54.3994 54.5391C54.3518 54.4551 54.2989 54.3606 54.2566 54.2714C54.2141 54.1808 54.177 54.0879 54.1455 53.9931C54.1068 53.8885 54.075 53.7815 54.0503 53.6728C54.0204 53.5482 53.9975 53.422 53.9815 53.2948C53.9815 53.1688 53.9498 53.0271 53.9392 52.8801C53.9392 52.7226 53.9392 52.5703 53.9392 52.418C53.9389 52.3569 53.9142 52.2984 53.8704 52.2553C53.8483 52.2332 53.8219 52.2157 53.7928 52.204C53.7637 52.1923 53.7326 52.1865 53.7012 52.187H47.7291C47.6675 52.1874 47.6085 52.2119 47.5651 52.2553C47.543 52.2763 47.5254 52.3015 47.5136 52.3295C47.5018 52.3575 47.4959 52.3877 47.4963 52.418C47.4963 52.8223 47.4963 53.1951 47.5439 53.5416C47.5916 53.8881 47.6286 54.2346 47.6921 54.5916C47.7543 54.9048 47.8373 55.2134 47.9407 55.5157C48.0334 55.8008 48.1447 56.0797 48.2739 56.3504L48.3057 56.4134C48.4326 56.6707 48.5754 56.9385 48.7288 57.1695C48.8825 57.4054 49.0485 57.6332 49.2261 57.852C49.4005 58.0643 49.5877 58.266 49.7868 58.4558C49.9761 58.6436 50.1776 58.8189 50.3898 58.9808L50.4374 59.0176C50.6518 59.1743 50.8742 59.3197 51.1039 59.4533C51.3367 59.5951 51.5747 59.7211 51.8233 59.8418C52.0719 59.9626 52.3153 60.0571 52.5745 60.1568C52.8337 60.2566 53.1034 60.3301 53.3521 60.4036C53.6007 60.4771 53.7699 60.5086 53.9762 60.5506C54.1825 60.5926 54.41 60.6399 54.611 60.6714C54.7082 60.6864 54.7968 60.7354 54.8608 60.8095C54.9248 60.8836 54.96 60.978 54.9601 61.0756V63.3332C54.9767 63.5478 55.0418 63.756 55.1506 63.9422C55.1929 64.021 55.1506 64.084 55.1982 64.084H57.9435C57.975 64.0847 58.0063 64.0791 58.0355 64.0675C58.0647 64.0559 58.0912 64.0385 58.1135 64.0164C58.1357 63.9943 58.1532 63.968 58.1649 63.939C58.1766 63.91 58.1823 63.879 58.1816 63.8477V61.0861C58.1814 60.9893 58.2159 60.8955 58.2789 60.8215C58.3418 60.7475 58.4292 60.698 58.5254 60.6819L58.8745 60.6241C59.2314 60.5564 59.5845 60.4706 59.9325 60.3669C60.5789 60.1691 61.2002 59.8978 61.7839 59.5583C62.0478 59.4032 62.299 59.2277 62.535 59.0333C62.7786 58.8374 63.0067 58.6232 63.2174 58.3928C63.4315 58.1604 63.6261 57.9111 63.7992 57.6473C63.9792 57.387 64.135 57.1111 64.2647 56.823C64.3977 56.5304 64.5091 56.2286 64.598 55.9199C64.686 55.5958 64.7514 55.266 64.7937 54.9329C64.8384 54.5846 64.8614 54.2339 64.8625 53.8829C64.8636 53.5127 64.8424 53.1427 64.799 52.7751C64.7568 52.4371 64.6932 52.1022 64.6086 51.7723C64.5267 51.4611 64.4187 51.1573 64.2859 50.864C64.1645 50.5929 64.0194 50.3329 63.8521 50.087C63.6904 49.842 63.5138 49.607 63.3232 49.3834C63.1216 49.1536 62.9061 48.9361 62.6778 48.7324C62.4522 48.529 62.2155 48.338 61.969 48.1601C61.7151 47.9764 61.44 47.7979 61.165 47.6351H61.1279C60.8476 47.4724 60.5514 47.3043 60.234 47.1101C59.9166 46.9158 59.6521 46.7951 59.303 46.6218C58.9539 46.4486 58.6629 46.3016 58.3403 46.1493C57.8113 45.9183 57.3246 45.6925 56.8221 45.4458L56.4148 45.2253L56.071 45.0258C55.8647 44.884 55.7324 44.7947 55.542 44.6372C55.4001 44.5094 55.2724 44.3668 55.1611 44.212C55.1112 44.1468 55.0686 44.0764 55.0342 44.002C55.0001 43.9302 54.9701 43.8566 54.9443 43.7815C54.9172 43.7057 54.8942 43.6286 54.8755 43.5504C54.8576 43.4603 54.8452 43.3691 54.8385 43.2774V42.9939V42.7314C54.8595 42.5633 54.8913 42.3967 54.9337 42.2326L55.0183 41.9911C55.0453 41.9199 55.079 41.8514 55.1188 41.7864C55.1573 41.7213 55.2015 41.6598 55.2511 41.6026C55.3506 41.4791 55.4683 41.3711 55.6002 41.2824C55.6614 41.2434 55.725 41.2083 55.7906 41.1774L56.0181 41.1039C56.1098 41.0783 56.2036 41.0607 56.2984 41.0514C56.4006 41.0461 56.503 41.0461 56.6052 41.0514C56.7401 41.0506 56.8748 41.0629 57.0072 41.0881C57.1266 41.1102 57.2435 41.1436 57.3564 41.1879H57.3828C57.4981 41.2358 57.608 41.2956 57.7108 41.3664C57.8179 41.4362 57.9172 41.5172 58.007 41.6079L58.0387 41.6394C58.1435 41.7492 58.2325 41.8729 58.3032 42.0069C58.37 42.1437 58.4249 42.286 58.4672 42.4322V42.4847C58.5233 42.7018 58.5622 42.923 58.5836 43.1462C58.5836 43.3772 58.6206 43.6397 58.6259 43.9232C58.6255 43.9785 58.6441 44.0322 58.6788 44.0755C58.7222 44.1189 58.7812 44.1434 58.8428 44.1437H64.7778C64.8394 44.1434 64.8984 44.1189 64.9418 44.0755C64.9641 44.0535 64.9817 44.0273 64.9935 43.9984C65.0053 43.9696 65.0111 43.9386 65.0106 43.9075C65.0122 43.5092 64.9892 43.1112 64.9418 42.7157C64.8999 42.3427 64.8345 41.9727 64.7461 41.6079C64.6625 41.2648 64.5547 40.9279 64.4234 40.5998C64.2979 40.2884 64.1494 39.9866 63.9791 39.6968L63.9421 39.6285C63.7683 39.3369 63.5739 39.058 63.3602 38.7938C63.1523 38.5315 62.9242 38.2858 62.6778 38.0587C62.4376 37.7765 62.174 37.5149 61.8897 37.2765C61.606 37.0813 61.3091 36.9058 61.001 36.7514C60.3695 36.4359 59.7016 36.1978 59.012 36.0427H58.8957C58.7994 36.0265 58.7121 35.977 58.6492 35.903C58.5862 35.829 58.5517 35.7352 58.5518 35.6384V33.1708C58.5515 33.1157 58.5329 33.0622 58.4989 33.0185C58.4768 32.9964 58.4504 32.979 58.4213 32.9672C58.3923 32.9555 58.3611 32.9497 58.3297 32.9503H55.542C55.4788 32.9503 55.4181 32.9748 55.3727 33.0185C55.329 33.0616 55.3043 33.1201 55.304 33.1813L55.3198 33.134ZM40.9001 59.2643C41.3757 59.2643 41.8318 59.4518 42.1681 59.7856C42.5044 60.1194 42.6933 60.5721 42.6933 61.0441C42.6933 61.5162 42.5044 61.9689 42.1681 62.3027C41.8318 62.6364 41.3757 62.824 40.9001 62.824H4.17358C3.06668 62.824 2.00511 62.3875 1.22241 61.6107C0.439716 60.8338 0 59.7802 0 58.6815L0 4.14241C0 3.04378 0.439716 1.99014 1.22241 1.21328C2.00511 0.436431 3.06668 0 4.17358 0L55.4256 0C56.5325 0 57.5941 0.436431 58.3768 1.21328C59.1595 1.99014 59.5992 3.04378 59.5992 4.14241V23.7939C59.5992 24.266 59.4103 24.7187 59.074 25.0525C58.7377 25.3862 58.2816 25.5737 57.806 25.5737C57.3304 25.5737 56.8743 25.3862 56.538 25.0525C56.2017 24.7187 56.0128 24.266 56.0128 23.7939V4.14241C56.0114 3.98837 55.9486 3.84114 55.8382 3.7329C55.7285 3.62424 55.5806 3.56212 55.4256 3.55964H4.17358C4.01817 3.56251 3.86931 3.62235 3.7557 3.72765C3.65046 3.84095 3.5903 3.98835 3.58643 4.14241V58.6763C3.58643 58.8309 3.64829 58.9791 3.7584 59.0884C3.86851 59.1977 4.01786 59.2591 4.17358 59.2591H40.9001V59.2643ZM22.5553 46.2438C22.1339 46.1621 21.7542 45.9375 21.4813 45.6085C21.2083 45.2795 21.0591 44.8665 21.0591 44.4404C21.0591 44.0142 21.2083 43.6012 21.4813 43.2723C21.7542 42.9433 22.1339 42.7187 22.5553 42.6369H38.1759C38.602 42.7129 38.9877 42.9352 39.2655 43.2648C39.5433 43.5945 39.6955 44.0106 39.6955 44.4404C39.6955 44.8701 39.5433 45.2862 39.2655 45.6159C38.9877 45.9455 38.602 46.1678 38.1759 46.2438H22.5553ZM22.5553 20.1608C22.1186 20.1195 21.7159 19.9088 21.4346 19.5746C21.1534 19.2404 21.0163 18.8096 21.0531 18.3757C21.0178 17.9432 21.1557 17.5144 21.4369 17.1822C21.7182 16.85 22.12 16.6412 22.5553 16.6011H42.4235C42.8544 16.6476 43.2502 16.8589 43.5267 17.1903C43.8033 17.5216 43.9388 17.9468 43.9046 18.3757C43.9431 18.8066 43.8094 19.2353 43.5323 19.5692C43.2552 19.9032 42.857 20.1156 42.4235 20.1608H22.5553ZM13.9384 42.0016C14.3569 42.0016 14.766 42.1248 15.1139 42.3556C15.4619 42.5863 15.7331 42.9143 15.8932 43.2981C16.0534 43.6818 16.0953 44.1041 16.0136 44.5114C15.932 44.9188 15.7305 45.293 15.4346 45.5867C15.1386 45.8804 14.7616 46.0804 14.3512 46.1614C13.9407 46.2425 13.5153 46.2009 13.1287 46.0419C12.7421 45.883 12.4116 45.6138 12.1791 45.2685C11.9466 44.9231 11.8225 44.5171 11.8225 44.1017C11.8225 43.5447 12.0454 43.0106 12.4422 42.6167C12.839 42.2229 13.3772 42.0016 13.9384 42.0016ZM13.9384 29.1439C14.3569 29.1439 14.766 29.2671 15.1139 29.4978C15.4619 29.7286 15.7331 30.0566 15.8932 30.4403C16.0534 30.824 16.0953 31.2463 16.0136 31.6537C15.932 32.0611 15.7305 32.4352 15.4346 32.729C15.1386 33.0227 14.7616 33.2227 14.3512 33.3037C13.9407 33.3847 13.5153 33.3431 13.1287 33.1842C12.7421 33.0252 12.4116 32.7561 12.1791 32.4107C11.9466 32.0654 11.8225 31.6593 11.8225 31.244C11.8225 30.687 12.0454 30.1528 12.4422 29.759C12.839 29.3651 13.3772 29.1439 13.9384 29.1439ZM13.9384 16.2914C14.3569 16.2914 14.766 16.4146 15.1139 16.6453C15.4619 16.8761 15.7331 17.2041 15.8932 17.5878C16.0534 17.9715 16.0953 18.3938 16.0136 18.8012C15.932 19.2085 15.7305 19.5827 15.4346 19.8765C15.1386 20.1702 14.7616 20.3702 14.3512 20.4512C13.9407 20.5322 13.5153 20.4906 13.1287 20.3317C12.7421 20.1727 12.4116 19.9036 12.1791 19.5582C11.9466 19.2129 11.8225 18.8068 11.8225 18.3915C11.8225 17.8345 12.0454 17.3003 12.4422 16.9065C12.839 16.5126 13.3772 16.2914 13.9384 16.2914Z" fill="url(#paint0_linear)"/>
</g>
<defs>
<linearGradient id="paint0_linear" x1="-29.1152" y1="-7.04925" x2="72.6413" y2="102.321" gradientUnits="userSpaceOnUse">
<stop stop-color="#ED3A8D"/>
<stop offset="1" stop-color="#4B3D9B"/>
</linearGradient>
<clipPath id="clip0">
<rect width="65" height="64" fill="white"/>
</clipPath>
</defs>
</svg>
