<svg width="1440" height="122" viewBox="0 0 1440 122" fill="none" xmlns="http://www.w3.org/2000/svg">
<path opacity="0.42" d="M0 103.359C69.6866 94.4253 138.973 100.881 208.828 103.18C267.058 105.078 320.166 94.2954 377.532 88.8689C459.518 81.114 540.967 94.5352 622.932 94.5752C684.335 94.5752 744.873 84.3819 806.381 86.0108C870.06 87.6897 932.854 97.6132 995.543 107.317C1060.13 117.31 1125.54 126.354 1190.95 118.12C1273.57 107.717 1356.58 109.126 1439.68 104.928" stroke="white" stroke-miterlimit="10"/>
<path opacity="0.42" d="M0 90.5079C72.5849 84.6218 144.032 95.1349 216.269 99.9117C245.568 101.84 275.152 102.79 304.431 99.9717C333.53 97.1736 361.881 89.5285 390.97 86.2107C474.347 76.677 557.756 87.7997 641.313 85.0915C704.043 83.0928 765.509 70.8808 828.482 71.7802C891.118 72.6796 952.689 82.5631 1014.2 92.9263C1075.01 103.17 1136.45 112.823 1198.16 103.799C1278.26 92.0969 1359.04 100.891 1439.68 98.8025" stroke="white" stroke-miterlimit="10"/>
<path opacity="0.42" d="M0 78.096C75.1144 74.978 148.374 89.1887 222.782 96.0842C252.978 98.8824 283.542 100.451 313.822 97.7231C343.827 95.0249 373.032 86.5804 402.932 82.7329C487.743 71.7401 573.038 80.9841 658.134 75.8175C722.139 71.94 784.501 57.9092 848.897 58.129C910.468 58.3389 970.817 68.1225 1031.06 79.2752C1087.97 89.7983 1145.5 100.261 1203.43 90.4379C1281.71 77.1766 1360.84 92.5965 1439.64 92.2267" stroke="white" stroke-miterlimit="10"/>
<path opacity="0.42" d="M0 66.1738C77.1169 65.4942 151.768 82.9028 227.936 91.4672C258.837 94.9449 290.224 96.9636 321.283 94.1055C352.101 91.2573 382.096 82.2832 412.766 78.036C498.989 66.1138 586.013 74.0386 672.541 66.8234C737.78 61.4069 801.038 45.6572 866.909 45.2375C927.458 44.8577 986.531 54.6613 1045.51 66.6235C1098.65 77.3964 1152.03 88.839 1206.31 78.3258C1283.68 63.3356 1361.81 84.2419 1439.68 84.9915" stroke="white" stroke-miterlimit="10"/>
<path opacity="0.42" d="M0 55.001C78.4659 56.1503 153.949 76.1472 231.34 85.7809C262.705 89.6783 294.682 91.9069 326.195 88.629C357.708 85.3512 388.377 76.1772 419.743 71.7601C507.294 59.4281 595.835 66.7633 683.65 58.129C750.111 51.6032 814.275 34.2646 881.516 33.2952C941.085 32.4358 998.968 42.1694 1056.66 55.2209C1106.91 66.5834 1154.45 77.6362 1205.99 67.8126C1284.52 52.8224 1360.72 75.8074 1439.64 76.8867" stroke="white" stroke-miterlimit="10"/>
<path opacity="0.42" d="M0 44.7077C79.0456 46.9362 154.645 68.8219 232.563 78.7654C264.107 82.7628 296.379 84.9013 328.071 80.894C360.069 76.8466 391.307 67.8325 423.316 63.4854C512.068 51.4932 601.822 59.1182 690.743 49.7943C758.416 42.689 823.539 23.9013 892.045 22.4822C950.718 21.273 1007.52 30.9467 1063.93 45.3073C1110.31 57.0996 1154.12 69.7812 1202 59.2182C1282.1 41.5697 1358.96 67.5127 1439.63 67.6926" stroke="white" stroke-miterlimit="10"/>
<path opacity="0.42" d="M0 35.4039C79.4566 38.4019 155.878 59.0984 234.397 68.792C265.878 72.6795 297.991 74.7881 329.631 71.2104C361.955 67.5628 393.647 59.3682 425.993 55.3908C515.957 44.3181 606.828 50.604 696.855 41.32C762.474 34.5545 825.9 17.1059 892.288 15.8067C948.948 14.6974 1003.93 23.8015 1058.63 36.853C1104.59 47.8458 1148.22 59.3283 1195.57 49.8445C1277.68 33.3852 1357.04 57.9192 1439.66 57.9891" stroke="white" stroke-miterlimit="10"/>
<path opacity="0.42" d="M0 27.0195C80.479 30.7271 158.27 50.3242 237.959 59.7681C305.274 67.7628 364.748 55.6408 431.188 48.2956C522.133 38.2421 613.921 43.2189 704.897 34.0449C768.481 27.6391 830.274 11.4597 894.459 10.1405C949.201 9.01127 1002.51 17.2958 1055.63 28.9682C1101.37 39.0116 1144.9 49.115 1191.82 40.5007C1275.08 25.2007 1355.99 48.4255 1439.68 48.4355" stroke="white" stroke-miterlimit="10"/>
<path opacity="0.42" d="M0 19.4242C81.965 23.8613 161.601 42.4092 242.912 51.5632C310.449 59.2082 371.493 48.6251 438.397 42.0694C530.154 33.0753 622.648 36.7828 714.372 27.7787C775.954 21.7227 836.007 6.79245 898.127 5.32341C951.045 4.07423 1002.8 11.4594 1054.46 21.5728C1100.15 30.5169 1143.77 39.1313 1190.33 31.2465C1273.98 17.0657 1355.66 39.1213 1439.68 39.1213" stroke="white" stroke-miterlimit="10"/>
<path opacity="0.42" d="M0 12.4989C83.7989 17.6455 165.648 35.1041 248.941 44.0482C316.889 51.3535 379.63 42.3594 447.145 36.5632C539.544 28.6284 632.586 31.1267 724.88 22.3125C784.48 16.6262 842.837 2.89519 902.88 1.2063C954.112 -0.242751 1004.45 6.12308 1054.75 14.6075C1100.5 22.3225 1144.34 29.3779 1190.71 22.1026C1274.16 9.0012 1355.93 29.8975 1439.65 29.9375" stroke="white" stroke-miterlimit="10"/>
</svg>
