<svg width="65" height="64" viewBox="0 0 65 64" fill="none" xmlns="http://www.w3.org/2000/svg">
<g clip-path="url(#clip0)">
<path fill-rule="evenodd" clip-rule="evenodd" d="M44.2802 33.3353H64.1695V56.8533C64.1325 57.5103 63.2914 57.5263 62.3816 57.4836H43.9734C42.7144 57.4836 41.6882 58.5198 41.6882 59.7857C41.6882 61.0569 42.7144 62.0931 43.9734 62.0931H63.2174V59.6415H65.0053V62.7608C65.0053 63.327 64.5451 63.7917 63.9844 63.7917H44.058C41.7993 64.6356 39.9479 62.7715 39.9479 60.4854V37.7046C39.9479 35.3009 41.8945 33.3353 44.2802 33.3353ZM20.577 47.6288C19.5931 47.6288 18.8049 46.8276 18.8049 45.8448C18.8049 44.8566 19.6037 44.0608 20.577 44.0608H24.8881C25.872 44.0608 26.6602 44.862 26.6602 45.8448C26.6602 46.8329 25.8667 47.6288 24.8881 47.6288H20.577ZM11.4046 45.8448C11.4046 44.8566 12.2034 44.0608 13.1714 44.0608H13.5628C14.5467 44.0608 15.3296 44.862 15.3296 45.8448C15.3296 46.8329 14.5361 47.6288 13.5628 47.6288H13.1714C12.1928 47.6288 11.4046 46.8329 11.4046 45.8448ZM11.4046 16.6169C11.4046 15.6288 12.2034 14.8329 13.1714 14.8329H13.6369C14.6208 14.8329 15.4089 15.6341 15.4089 16.6169C15.4089 17.6051 14.6155 18.4009 13.6369 18.4009H13.1714C12.1981 18.4009 11.4046 17.5997 11.4046 16.6169ZM13.1714 33.0149C12.1875 33.0149 11.4046 32.2136 11.4046 31.2255C11.4046 30.2374 12.2034 29.4415 13.1714 29.4415H13.6369C14.6208 29.4415 15.4089 30.2427 15.4089 31.2255C15.4089 32.2136 14.6155 33.0149 13.6369 33.0149H13.1714ZM20.577 18.4009C19.5931 18.4009 18.8049 17.5944 18.8049 16.6169C18.8049 15.6288 19.6037 14.8329 20.577 14.8329H40.6409C41.6248 14.8329 42.4076 15.6341 42.4076 16.6169C42.4076 17.6051 41.6142 18.4009 40.6409 18.4009H20.577ZM4.11011 0H50.5802C51.7122 0 52.7437 0.464697 53.4843 1.21249C54.2196 1.96027 54.6851 2.99649 54.6851 4.14488V26.1245H51.1568V4.16091C51.1568 4.00067 51.0933 3.85645 50.9875 3.74428C50.8818 3.6428 50.7336 3.57336 50.575 3.57336H4.11011C3.95142 3.57336 3.8033 3.63746 3.69751 3.74428C3.58643 3.84577 3.53353 4.00067 3.53353 4.16091V58.2313C3.53353 58.3916 3.59701 58.5358 3.7028 58.648C3.8033 58.7601 3.95142 58.8189 4.1154 58.8189H32.0292C32.3625 60.1275 32.7327 61.2759 33.2406 62.3655H4.11011C2.97282 62.3655 1.94661 61.9008 1.20605 61.1531C0.460205 60.4106 0 59.3691 0 58.226V4.15023C0 3.00718 0.460205 1.96027 1.20077 1.21249C1.93604 0.464697 2.97282 0 4.11011 0ZM20.577 33.0149C19.5931 33.0149 18.8049 32.2136 18.8049 31.2255C18.8049 30.2374 19.6037 29.4415 20.577 29.4415H33.7801C34.764 29.4415 35.5469 30.2427 35.5469 31.2255C35.5469 32.2136 34.7534 33.0149 33.7801 33.0149H20.577ZM45.0842 36.7485H45.8036C46.1739 36.7485 46.4754 36.9942 46.4754 37.2986V54.4817C46.4754 54.7808 46.1739 55.0319 45.8036 55.0319H45.0842C44.714 55.0319 44.4124 54.7862 44.4124 54.4817V37.2986C44.4124 36.9942 44.714 36.7485 45.0842 36.7485Z" fill="url(#paint0_linear)"/>
</g>
<defs>
<linearGradient id="paint0_linear" x1="-29.1128" y1="-7.03984" x2="72.4987" y2="102.311" gradientUnits="userSpaceOnUse">
<stop stop-color="#ED3A8D"/>
<stop offset="1" stop-color="#4B3D9B"/>
</linearGradient>
<clipPath id="clip0">
<rect width="65" height="64" fill="white"/>
</clipPath>
</defs>
</svg>
